<svg width="44" height="44" viewBox="0 0 44 44" fill="none" xmlns="http://www.w3.org/2000/svg">
<g clip-path="url(#clip0_67_10)">
<path d="M38.2708 35.6771L30.9375 28.3349C30.6999 28.0915 30.4355 27.876 30.1492 27.6925L28.3158 26.426C32.0869 21.7543 32.1219 15.0901 28.4002 10.379C24.6784 5.66777 18.1932 4.16688 12.784 6.76484C7.37477 9.36281 4.48513 15.3663 5.82583 21.221C7.16654 27.0758 12.3798 31.2192 18.3792 31.1984C21.2906 31.1992 24.1158 30.2089 26.3908 28.39L27.7658 30.2256C27.9289 30.4619 28.113 30.6831 28.3158 30.8864L35.6492 38.2285C35.8213 38.4023 36.0556 38.5 36.3 38.5C36.5444 38.5 36.7787 38.4023 36.9508 38.2285L38.2342 36.9436C38.5822 36.599 38.5983 36.0414 38.2708 35.6771ZM18.3792 27.5273C13.3166 27.5273 9.21249 23.4183 9.21249 18.3496C9.21249 13.2809 13.3166 9.17187 18.3792 9.17187C23.4418 9.17187 27.5458 13.2809 27.5458 18.3496C27.5458 20.7837 26.5801 23.1181 24.861 24.8392C23.1419 26.5604 20.8103 27.5273 18.3792 27.5273Z" fill="#FFFCFC"/>
</g>
<defs>
<clipPath id="clip0_67_10">
<rect width="44" height="44" fill="white"/>
</clipPath>
</defs>
</svg>
